<?xml version="1.0" encoding="utf-8"?>
<!-- Generator: Adobe Illustrator 15.0.0, SVG Export Plug-In . SVG Version: 6.00 Build 0)  -->
<!DOCTYPE svg PUBLIC "-//W3C//DTD SVG 1.1//EN" "http://www.w3.org/Graphics/SVG/1.1/DTD/svg11.dtd">
<svg version="1.1" xmlns="http://www.w3.org/2000/svg" xmlns:xlink="http://www.w3.org/1999/xlink" x="0px" y="0px"
	 width="109.955px" height="101.936px" viewBox="0 0 109.955 101.936" enable-background="new 0 0 109.955 101.936"
	 xml:space="preserve">
<g id="Layer_2">
</g>
<g id="Layer_1">
	<g>
		<defs>
			<rect id="SVGID_1_" width="109.955" height="101.936"/>
		</defs>
		<clipPath id="SVGID_2_">
			<use xlink:href="#SVGID_1_"  overflow="visible"/>
		</clipPath>
		<path clip-path="url(#SVGID_2_)" d="M0,0v33.817l1.864-3.204c2.124-3.65,4.931-6.82,6.788-8.918
			c0.445-0.502,0.838-0.946,1.194-1.369c4.202-5.567,4.709-10.885,5.045-14.404c0.01-0.1,0.019-0.197,0.028-0.293
			c1.5,1.58,4.579,5.761,9.183,14.85c5.35,10.571,6.985,21.514,7.339,24.383c-2.512,1.058-11.037,4.667-14.368,6.345
			c-1.661,0.838-16.25,8.29-17.047,11.698L0,71.684l1.817-2.576c2.61-3.703,6.928-7.371,12.157-10.329
			c3.23-1.826,7.794-3.837,12.208-5.782c2.992-1.318,5.818-2.564,8.041-3.667c8.599-3.493,10.772-14.894,11.7-19.762
			c0.032-0.171,0.066-0.346,0.099-0.519c2.159,2.581,7.172,9.854,9.19,16.401c3.081,10.223,2.27,17.682,1.937,19.781
			c-1.137,0.246-3.992,0.775-9.239,1.207c-9.488,0.783-22.685,2.865-31.614,8.299c-9.656,5-15.937,18.006-16.2,18.557L0,93.496
			v22.414l1.979-9.41C2.76,102.783,7.46,83.918,23.29,77.457c10.513-4.254,19.254-4.941,26.277-5.494
			c2.947-0.23,5.492-0.432,7.718-0.863c7.88-1.525,17.103-6.931,20.703-9.184c0.399-0.25,0.751-0.506,1.052-0.732
			c-1.312,5.635-10.875,31.203-25.673,36.123L40.6,101.955l69.355-0.096V0H0z"/>
	</g>
</g>
</svg>
